# xmcd CD database file
#
# Track frame offsets:
#	150
#	10822
#	19335
#	37172
#	71147
#	83705
#	95752
#	116512
#	141235
#	154455
#	177650
#	193312
#	206650
#
# Disc length: 3073 seconds
#
# Revision: 0
# Processed by: cddbd v1.5.1PL0 Copyright (c) Steve Scherf et al.
# Submitted via: CDex 1.51
#
DISCID=c60bff0d
DTITLE=Siboni Løfvander Vogel - Stained glass music
DYEAR=2004
DGENRE=New Age
TTITLE0=Opening stroke
TTITLE1=Stained glass
TTITLE2=Sound cathedral
TTITLE3=Cavum nasi
TTITLE4=Fenja and Menja
TTITLE5=Leaded visions
TTITLE6=As desmond
TTITLE7=Durin and Dvalin
TTITLE8=Mesa verde
TTITLE9=Pech-Merie
TTITLE10=Ignigena
TTITLE11=Padirac
TTITLE12=Celestial underground
EXTD=YEAR: 2004
EXTT0=
EXTT1=
EXTT2=
EXTT3=
EXTT4=
EXTT5=
EXTT6=
EXTT7=
EXTT8=
EXTT9=
EXTT10=
EXTT11=
EXTT12=
PLAYORDER=
